<svg version="1.1" id="Layer_1" xmlns="http://www.w3.org/2000/svg" xmlns:xlink="http://www.w3.org/1999/xlink" x="0px" y="0px"
	 width="100%" viewBox="0 0 500 500" enable-background="new 0 0 500 500" xml:space="preserve">
<path fill="#171810" opacity="1.000000" stroke="none" 
	d="
M242.000000,501.000000 
	C162.666687,501.000000 83.833328,500.971558 5.000208,501.096100 
	C1.575944,501.101501 0.903036,500.423828 0.905301,497.000000 
	C1.013779,333.000092 1.013772,169.000122 0.905334,5.000238 
	C0.903070,1.576918 1.575820,0.903022 4.999885,0.905287 
	C168.999771,1.013774 332.999725,1.013761 496.999634,0.905353 
	C500.422668,0.903090 501.096985,1.575444 501.094727,4.999765 
	C500.986206,168.999649 500.986237,332.999603 501.094604,496.999512 
	C501.096893,500.422272 500.425446,501.100891 497.000275,501.095947 
	C412.166992,500.973480 327.333466,501.000000 242.000000,501.000000 
z"/>
<path fill="#294869" opacity="1.000000" stroke="none" 
	d="
M183.583160,224.309326 
	C189.827698,184.036392 228.480896,162.289627 268.364929,174.442001 
	C272.736053,175.773849 276.995575,178.630264 280.681274,173.145477 
	C281.527496,171.886154 283.446411,172.193741 284.937469,172.190079 
	C294.270020,172.167114 303.602783,172.152863 312.935211,172.192947 
	C314.204651,172.198395 315.879181,171.716888 316.577179,173.142899 
	C317.431641,174.888519 315.637024,175.802704 314.741852,176.858887 
	C310.540222,181.816238 306.431488,186.874817 301.916809,191.536270 
	C299.019043,194.528275 299.228424,196.798492 301.330322,200.205734 
	C320.121002,230.665695 310.347198,271.239563 279.674530,288.652283 
	C260.979492,299.265320 241.187637,299.469513 221.302734,291.919159 
	C217.903503,290.628479 215.439697,290.160522 213.216629,293.509399 
	C211.932449,295.443909 209.964615,296.142120 207.605179,296.143646 
	C173.965500,296.165619 140.343185,294.440857 106.698334,295.139862 
	C103.164383,295.213287 102.089561,293.477631 102.093300,290.224762 
	C102.136345,252.727615 102.139763,215.230362 102.091522,177.733246 
	C102.087189,174.364441 103.373993,172.969543 106.821587,172.979858 
	C131.986145,173.055161 157.151215,173.066574 182.315659,172.970978 
	C186.062042,172.956757 187.316269,174.544006 187.257324,178.063095 
	C187.145676,184.727234 187.071136,191.400238 187.297165,198.058823 
	C187.439896,202.264145 185.578049,203.625214 181.645767,203.600739 
	C167.980728,203.515686 154.314453,203.543777 140.649399,203.638382 
	C138.455490,203.653564 135.327820,202.777145 134.520782,205.590012 
	C133.476135,209.231049 133.306656,213.243790 134.779282,216.853333 
	C135.453461,218.505814 137.754852,217.965485 139.374908,217.970749 
	C151.873886,218.011368 164.374817,218.121750 176.871048,217.935944 
	C180.811646,217.877335 182.925171,219.038467 182.811737,223.589539 
	C182.828522,231.311569 182.346390,238.638672 183.169479,245.949585 
	C183.559967,249.418030 181.064941,249.411530 178.784729,249.446411 
	C170.632324,249.571106 162.478561,249.474136 154.325394,249.502487 
	C150.998032,249.514053 147.664780,249.368011 144.344833,249.619720 
	C139.380478,249.996170 136.989807,252.112457 136.976929,255.990799 
	C136.963943,259.901611 139.323959,262.188477 144.305222,262.356598 
	C155.114838,262.721405 165.933884,262.442719 176.748856,262.498688 
	C178.745544,262.509033 180.742950,262.470245 182.738907,262.515839 
	C187.906143,262.633759 188.222153,262.912140 189.043701,266.397339 
	C180.647202,254.638031 182.330032,239.589066 183.583160,224.309326 
z"/>
<path fill="#294769" opacity="1.000000" stroke="none" 
	d="
M363.161621,296.208679 
	C344.107391,298.046875 326.188477,296.248077 309.569550,286.656494 
	C305.483826,284.298431 304.788788,281.994751 306.938141,277.906219 
	C309.879120,272.311859 312.483154,266.523315 314.923279,260.689087 
	C316.442322,257.057190 317.971588,256.249573 321.514893,258.637939 
	C331.711670,265.511108 343.197662,267.694580 355.330444,266.961365 
	C359.032593,266.737671 362.644714,266.021606 365.722809,263.834595 
	C369.471954,261.170868 369.572815,257.398926 365.750488,254.864380 
	C363.288666,253.231979 360.428864,252.132843 357.642822,251.068634 
	C348.782928,247.684357 339.530243,245.399918 330.908051,241.324890 
	C318.292480,235.362518 310.723663,225.994568 309.818115,211.662537 
	C308.587921,192.192474 318.415344,178.010086 337.594727,173.430923 
	C357.778046,168.612061 377.241211,170.946442 395.603943,181.162109 
	C399.349182,183.245667 400.042236,185.294846 398.070587,189.076950 
	C395.226044,194.533463 392.891937,200.254990 390.305603,205.847504 
	C387.707489,211.465591 387.634369,211.545761 382.535736,208.405655 
	C373.915131,203.096451 364.567505,200.643875 354.481171,200.872559 
	C353.482635,200.895203 352.470337,200.864685 351.489563,201.018768 
	C347.716278,201.611572 343.195374,201.757095 342.263763,206.344772 
	C341.215729,211.505737 345.790955,212.964905 349.428680,214.509598 
	C358.778442,218.479828 368.706451,220.916687 377.946259,225.206696 
	C396.723572,233.924973 404.392578,248.396774 400.006378,267.593689 
	C396.412872,283.321289 384.959717,290.806061 370.461151,294.809906 
	C368.221497,295.428406 365.888702,295.709442 363.161621,296.208679 
z"/>
<path fill="#29496A" opacity="1.000000" stroke="none" 
	d="
M454.969604,291.765381 
	C454.921631,292.734406 454.904510,293.234497 454.853790,293.731140 
	C453.269501,309.231812 446.795166,315.712463 431.332703,316.860931 
	C426.029327,317.254852 420.678314,316.961548 415.355530,317.157440 
	C411.966858,317.282166 410.432587,315.843292 410.460144,312.487976 
	C410.502533,307.326355 410.528717,302.163055 410.442413,297.002472 
	C410.380646,293.308929 412.207642,292.193878 415.704407,292.114960 
	C424.389954,291.918762 424.350739,291.790283 424.431396,283.143860 
	C424.495056,276.320251 424.563110,269.493958 424.811951,262.675568 
	C425.054260,256.035675 426.806580,249.841293 431.199158,244.657791 
	C432.569763,243.040405 432.948547,241.602661 431.529907,239.806396 
	C425.500824,232.172470 424.310211,223.196960 424.413300,213.860184 
	C424.466614,209.031616 424.266418,204.196487 424.445618,199.374176 
	C424.607239,195.023819 423.091888,193.038040 418.417267,193.072266 
	C410.462524,193.130493 410.449158,192.903854 410.428009,185.061249 
	C410.416779,180.898361 410.464355,176.735352 410.466858,172.572388 
	C410.468658,169.599640 411.586578,167.945129 414.906036,167.986404 
	C422.230103,168.077530 429.562347,167.805359 436.813110,169.206085 
	C446.771942,171.129944 451.934570,176.210815 454.014740,186.165802 
	C455.771179,194.571625 454.971069,203.090530 455.128662,211.564941 
	C455.199921,215.397034 455.121429,219.230133 456.004211,222.993576 
	C456.915039,226.876450 458.792542,229.795410 463.244232,230.010727 
	C465.966675,230.142380 467.006653,231.612610 466.977966,234.230042 
	C466.915955,239.891037 466.918182,245.553421 466.968140,251.214584 
	C466.989532,253.640350 466.019684,254.898239 463.498505,255.056686 
	C458.357208,255.379837 456.436584,258.849213 455.772797,263.362244 
	C454.408264,272.639221 455.599792,281.993469 454.969604,291.765381 
z"/>
<path fill="#294569" opacity="1.000000" stroke="none" 
	d="
M85.844147,292.151703 
	C90.367561,291.797516 92.036041,293.666992 91.883339,297.733490 
	C91.695992,302.722870 91.800041,307.723969 91.815231,312.719879 
	C91.823669,315.493317 90.772575,317.136963 87.728081,317.118927 
	C80.077103,317.073578 72.418823,317.484558 64.826103,315.992310 
	C55.629597,314.184937 50.176006,308.759277 48.165085,299.625824 
	C46.495106,292.040833 47.168095,284.370483 46.990437,276.727905 
	C46.897602,272.734375 46.946457,268.728790 46.639351,264.751190 
	C46.236000,259.527008 44.520138,255.233078 38.211830,254.967438 
	C35.806454,254.866150 35.224419,253.179611 35.215282,251.166473 
	C35.189590,245.504761 35.194210,239.842880 35.202923,234.181091 
	C35.206863,231.619736 36.355450,230.096680 39.062992,229.990860 
	C43.837631,229.804245 45.566238,226.707245 46.293049,222.529587 
	C47.502842,215.575806 46.848217,208.571060 46.969879,201.589661 
	C47.059834,196.427673 46.969769,191.274384 48.066391,186.177109 
	C50.208691,176.219315 55.249912,171.191727 65.275688,169.193222 
	C72.687614,167.715759 80.191376,168.038757 87.682449,168.003555 
	C90.727631,167.989243 91.828697,169.517914 91.815567,172.322861 
	C91.789833,177.818192 91.765488,183.314087 91.819870,188.808975 
	C91.851944,192.050110 90.192444,193.264359 87.144272,193.138168 
	C76.567390,192.700226 77.998550,194.036163 77.848938,202.962479 
	C77.742943,209.286560 77.799774,215.623260 77.398018,221.929749 
	C76.988152,228.363556 74.868576,234.311951 70.870682,239.470551 
	C69.643867,241.053528 68.961273,242.409851 70.593727,244.265930 
	C76.734657,251.248154 77.575790,259.883270 77.813835,268.628174 
	C77.958794,273.953644 77.836197,279.286041 77.860107,284.615204 
	C77.893013,291.950195 77.903671,291.950134 85.844147,292.151703 
z"/>
<path fill="#181A15" opacity="1.000000" stroke="none" 
	d="
M183.579956,223.986038 
	C181.781738,239.881180 184.624802,254.756927 192.928024,268.561951 
	C195.613708,273.027222 191.248169,274.501862 188.955307,277.369293 
	C187.000320,275.103821 187.513855,272.685730 187.556534,270.544189 
	C187.641357,266.287079 185.790466,264.598114 181.550339,264.635101 
	C168.227158,264.751404 154.902115,264.677887 141.577881,264.645203 
	C134.049377,264.626740 134.000031,264.549347 133.974609,257.190338 
	C133.940613,247.355453 133.940613,247.353821 143.694138,247.346359 
	C154.520157,247.338058 165.347855,247.219696 176.171356,247.381516 
	C180.614395,247.447937 182.538300,245.809769 182.418823,241.254272 
	C182.275009,235.770126 182.582260,230.274124 182.787628,224.386475 
	C182.881027,223.989700 183.346985,223.986084 183.579956,223.986038 
z"/>
<path fill="#03F86E" opacity="1.000000" stroke="none" 
	d="
M232.973969,177.803833 
	C247.362488,174.839951 260.930328,176.088684 273.835999,182.243484 
	C276.868805,183.689835 278.766144,183.432968 280.460938,180.736130 
	C282.174286,178.009796 284.677917,177.349396 287.745819,177.468079 
	C292.237579,177.641846 296.741669,177.469864 301.239075,177.538544 
	C302.674255,177.560440 304.617035,176.917969 305.397003,178.343582 
	C306.281494,179.960190 304.330139,180.905914 303.445770,181.974380 
	C300.790955,185.181854 298.150085,188.425674 295.220123,191.373337 
	C292.495850,194.114075 292.007751,195.997177 294.652771,199.618118 
	C315.986847,228.823593 306.308197,280.690491 259.981201,290.446411 
	C246.036453,293.382996 232.418121,291.947205 219.616150,285.478210 
	C216.336472,283.820923 214.117996,283.707275 212.152054,286.962097 
	C210.128067,290.313049 207.159744,291.273102 203.293213,291.069489 
	C197.507904,290.764832 191.694672,290.990356 184.280045,290.990356 
	C188.991013,285.587067 192.649261,280.982849 196.749878,276.813751 
	C200.192795,273.313354 200.998627,270.857758 197.813065,266.068420 
	C178.398010,236.878860 188.486389,187.746872 232.973969,177.803833 
z"/>
<path fill="#03F86E" opacity="1.000000" stroke="none" 
	d="
M107.256485,282.842499 
	C107.256584,249.700912 107.367638,217.040100 107.141075,184.381622 
	C107.105865,179.306686 108.487473,177.928268 113.557770,177.997696 
	C134.716187,178.287430 155.881470,178.202789 177.042664,178.045090 
	C180.863235,178.016617 182.622223,178.963272 182.153000,183.033798 
	C181.587906,187.935944 184.247086,194.238907 180.954239,197.438873 
	C177.903244,200.403854 171.725510,198.312744 166.931213,198.364944 
	C155.768112,198.486526 144.601547,198.503555 133.439209,198.353363 
	C130.034470,198.307556 128.664963,199.343628 128.837021,202.896637 
	C129.086594,208.050156 129.102402,213.235367 128.832016,218.386810 
	C128.639572,222.053177 129.775177,223.326553 133.575897,223.264954 
	C146.403229,223.057114 159.239273,223.351807 172.065002,223.099258 
	C176.335571,223.015182 177.379425,224.521912 177.368729,228.552887 
	C177.332031,242.377655 177.468994,242.377563 163.497253,242.378204 
	C153.665909,242.378662 143.832077,242.508560 134.004517,242.316574 
	C130.256134,242.243347 128.580139,243.170975 128.813721,247.308350 
	C129.151321,253.288101 129.063553,259.307159 128.838882,265.297485 
	C128.709015,268.760223 129.854858,269.926392 133.373688,269.888336 
	C148.035645,269.729797 162.702011,269.948059 177.362915,269.747009 
	C181.307022,269.692932 182.799271,270.945190 182.461609,274.857178 
	C182.048859,279.639038 184.394867,285.756348 181.469604,288.894836 
	C178.484436,292.097626 172.309448,289.905182 167.547882,289.941620 
	C149.719193,290.078247 131.888855,289.997955 114.059135,289.995422 
	C107.305092,289.994446 107.305092,289.990051 107.256485,282.842499 
z"/>
<path fill="#03F76E" opacity="1.000000" stroke="none" 
	d="
M323.311554,265.825684 
	C334.212585,271.320129 345.456116,272.959656 357.138702,271.982208 
	C361.327026,271.631805 365.357605,270.545532 368.856812,268.075653 
	C375.759216,263.203644 375.686035,254.881317 368.590302,250.355728 
	C362.915100,246.736176 356.412811,245.031433 350.081116,242.989517 
	C343.107117,240.740448 336.136230,238.540970 329.663483,234.979706 
	C318.189514,228.666763 314.310852,218.574539 314.827332,206.109344 
	C315.310547,194.447479 320.978180,185.880707 331.371094,181.336044 
	C351.503784,172.532333 371.374207,175.442581 390.777954,184.373062 
	C393.083099,185.433990 393.445740,186.888824 392.285980,189.171417 
	C390.402130,192.879135 388.623383,196.659485 387.111938,200.530884 
	C385.977020,203.437668 384.737366,203.824234 381.961060,202.280167 
	C372.544800,197.043243 362.350006,195.054825 351.613434,195.852295 
	C350.286896,195.950821 348.945801,196.053253 347.650055,196.332870 
	C341.094330,197.747681 337.339417,201.019897 336.708679,205.774918 
	C335.992157,211.176895 338.432281,214.950760 344.807404,218.153549 
	C350.487549,221.007233 356.609253,222.686768 362.601501,224.699799 
	C368.766663,226.770874 374.809448,229.099869 380.551880,232.192795 
	C390.936340,237.786026 396.025360,246.444977 395.912476,258.220703 
	C395.797974,270.170654 391.015106,279.491211 380.458130,285.467651 
	C371.482422,290.548920 361.600891,291.929565 351.507874,291.793243 
	C338.904846,291.622955 326.669617,289.533173 315.202515,283.887512 
	C312.022949,282.322113 311.054840,280.609924 312.938934,277.306824 
	C314.747498,274.136139 316.268738,270.765808 317.567535,267.350586 
	C318.761780,264.210205 320.333008,263.536407 323.311554,265.825684 
z"/>
<path fill="#03F86E" opacity="1.000000" stroke="none" 
	d="
M456.700867,251.510452 
	C451.051880,255.377304 450.354767,261.103180 450.130524,266.770508 
	C449.814880,274.749420 450.109253,282.750336 449.948425,290.737946 
	C449.645447,305.787109 443.959686,311.482971 428.981293,311.959656 
	C426.985260,312.023163 424.967773,312.180237 422.993835,311.973450 
	C420.641815,311.727112 417.105194,313.381348 416.181183,310.770233 
	C414.821899,306.929016 415.065582,302.515808 416.142700,298.486023 
	C416.660278,296.549591 419.013092,297.337738 420.579956,297.251770 
	C427.817627,296.854736 429.368042,295.527740 429.589752,288.314575 
	C429.835205,280.330688 429.638702,272.334015 429.818817,264.347076 
	C430.036041,254.712433 433.065002,246.654755 443.480713,242.640472 
	C432.098053,236.760117 429.662567,226.837723 429.695099,215.686996 
	C429.714020,209.195435 429.824707,202.695297 429.544250,196.214157 
	C429.263458,189.724518 427.429321,187.813080 420.871552,188.122055 
	C416.028442,188.350204 415.447845,186.185471 415.551636,182.247284 
	C415.828857,171.730942 414.612091,173.272247 424.601593,173.181595 
	C426.760590,173.162003 428.933838,173.261261 431.079834,173.495438 
	C444.898346,175.003281 449.617004,180.113190 449.940063,194.169891 
	C450.119751,201.990158 449.753326,209.829208 450.117004,217.637238 
	C450.462463,225.055618 451.165192,232.607086 460.309448,235.016251 
	C461.826050,235.415833 461.746826,236.664017 461.769714,237.813065 
	C461.812775,239.976395 461.581940,242.168045 461.851654,244.298981 
	C462.344208,248.190720 461.205048,250.741562 456.700867,251.510452 
z"/>
<path fill="#04F66E" opacity="1.000000" stroke="none" 
	d="
M52.073322,287.894623 
	C52.040089,280.243500 52.274574,273.063751 51.902130,265.915619 
	C51.546135,259.083130 50.304459,252.431427 42.200222,250.248520 
	C40.518925,249.795639 40.367355,248.542572 40.361378,247.151047 
	C40.352791,245.151260 40.469547,243.141388 40.308861,241.153915 
	C40.018753,237.565689 40.550571,234.999146 44.796951,233.804535 
	C48.615696,232.730225 50.085320,229.016922 51.020374,225.334808 
	C52.730457,218.600784 51.866570,211.735321 52.053787,204.925385 
	C52.213821,199.103989 51.770718,193.267548 52.888378,187.478897 
	C54.355667,179.879410 58.377953,175.557907 65.842651,174.145935 
	C71.598335,173.057266 77.441452,173.091232 83.281372,173.114120 
	C85.610641,173.123260 86.668457,174.061905 86.634735,176.356323 
	C86.612701,177.855576 86.662430,179.355728 86.662354,180.855484 
	C86.662003,187.499451 86.664505,187.575577 79.838341,188.007492 
	C75.217834,188.299835 72.801147,190.510010 72.726448,195.209808 
	C72.591423,203.704422 72.631149,212.209290 72.201195,220.689758 
	C71.726395,230.054581 68.152527,237.811401 58.570415,242.574417 
	C70.373199,246.956818 72.296379,256.506470 72.506081,266.912018 
	C72.660515,274.575012 72.639061,282.241425 72.724678,289.906006 
	C72.779701,294.831665 75.339645,297.550415 80.224693,297.072784 
	C85.704033,296.537018 86.992531,298.872742 86.757256,303.915741 
	C86.312904,313.440338 87.548294,311.917908 78.290146,312.007599 
	C75.130997,312.038239 71.933418,312.028931 68.814705,311.596130 
	C57.875229,310.078064 54.106686,306.262146 52.550598,295.351257 
	C52.222633,293.051636 52.225384,290.704865 52.073322,287.894623 
z"/>
<path fill="#29486A" opacity="1.000000" stroke="none" 
	d="
M268.301971,222.296173 
	C270.611694,219.645279 272.767944,217.323853 274.738068,214.853943 
	C276.515808,212.625244 277.795502,212.705002 279.001404,215.304520 
	C285.069458,228.385117 285.274109,241.509506 278.122070,254.093430 
	C271.157349,266.347717 259.886108,271.571533 246.000427,271.419098 
	C241.649857,271.371338 237.427582,270.536194 233.298294,269.070251 
	C230.093079,267.932312 229.482864,266.791290 231.981079,263.965698 
	C244.107376,250.250336 256.055908,236.377823 268.301971,222.296173 
z"/>
<path fill="#29476A" opacity="1.000000" stroke="none" 
	d="
M214.630066,252.067017 
	C209.893814,242.141479 209.253540,232.089554 212.171173,222.037338 
	C219.026672,198.418091 242.917343,192.838501 260.204712,198.776398 
	C263.072327,199.761368 262.973480,200.829895 261.172119,202.886200 
	C246.904114,219.173431 232.712708,235.527756 218.455139,251.824188 
	C217.527451,252.884521 216.473892,255.203018 214.630066,252.067017 
z"/>
<path fill="#171912" opacity="1.000000" stroke="none" 
	d="
M272.075531,254.000870 
	C264.749084,263.580017 255.119827,266.881042 243.782959,266.083374 
	C242.324905,265.980804 240.524673,266.183624 239.816544,264.586334 
	C239.187546,263.167542 240.525421,262.145996 241.368271,261.172668 
	C251.799805,249.126175 262.245758,237.092133 272.719208,225.082092 
	C273.545166,224.134964 274.311218,222.622162 275.867920,223.142456 
	C277.356323,223.639908 277.255005,225.343155 277.454376,226.566055 
	C279.028992,236.224548 278.017242,245.426270 272.075531,254.000870 
z"/>
<path fill="#171912" opacity="1.000000" stroke="none" 
	d="
M235.937134,223.938446 
	C230.584564,230.092087 225.478104,235.990540 220.339935,241.861267 
	C219.604111,242.701996 218.839691,244.057144 217.578598,243.470840 
	C216.906708,243.158463 216.493332,241.845154 216.342529,240.921692 
	C212.288315,216.095428 228.830856,200.736267 248.384705,201.928116 
	C249.826492,202.015991 251.707825,201.569778 252.509705,203.031815 
	C253.562881,204.952011 251.529510,205.961182 250.535553,207.126694 
	C245.796417,212.683838 240.969055,218.165726 235.937134,223.938446 
z"/>
</svg>